<?xml version="1.0" encoding="utf-8"?>
<!-- Generator: Adobe Illustrator 25.2.3, SVG Export Plug-In . SVG Version: 6.00 Build 0)  -->
<svg version="1.1" id="Layer_1" xmlns="http://www.w3.org/2000/svg" xmlns:xlink="http://www.w3.org/1999/xlink" x="0px" y="0px"
	 viewBox="0 0 2349 2500" style="enable-background:new 0 0 2349 2500;" xml:space="preserve">
<style type="text/css">
	.st0{fill:#FFFFFF;}
</style>
<path d="M2336,484.1c-14.5-28.3-40.6-48.2-380.3-286.9C1728.5,37.9,1712.4,29.5,1610.6,28c-42.1-1.5-389.4,21.4-771.2,50.5
	c-382.6,28.3-707.8,54.3-723.1,57.4c-42.9,7.6-81.9,36.7-100.2,75L0,244.6l1.5,802.7l2.3,802.7l24.5,49.7
	c13.8,27.5,107.1,156.1,208.9,288.5C438.5,2449,453,2463.6,529.5,2471.2c22.2,2.3,189-5.4,369.6-16.1
	c181.4-11.5,472.1-29.1,646.6-39c745.2-45.2,707-41.4,749.8-78.1c53.6-44.4,49.8,28.3,52-947.3C2349,563.6,2348.2,509.3,2336,484.1z
	 M206.6,288.2c0-26-5.4-26,642.8-72.7c124-8.4,327.5-23.7,451.5-33.7c268.5-21.4,348.9-20.7,398.6,1.5
	c32.1,14.5,267.1,178.3,301.5,209.7c9.2,9.2,12.2,16.8,7.6,21.4c-10.7,9.2-1464.6,95.7-1506.6,89.5c-19.1-3-47.4-14.5-63.5-25.3
	C371.8,433.5,206.6,298.1,206.6,288.2z M2186.8,1413.7c-2.3,685.6-3.1,728.4-16.1,748.3c-7.6,12.2-22.9,25.3-34.5,29.1
	c-32.1,13-1555.5,99.5-1586.9,90.3c-14.5-3.8-34.5-16.1-45.1-26.8l-18.4-19.9l-2.3-739.2c-1.5-518.8,0-748.3,6.2-769
	c4.6-15.3,16.1-33.7,26-39.8c13.8-9.2,104.1-16.8,414.7-35.2c218.1-12.2,555.5-32.9,749.1-44.4c460.5-28.4,459-28.4,481.9-5.4
	c10.7,10.7,19.9,31.3,22.9,51.2C2186.8,671.5,2188.3,1014.3,2186.8,1413.7z"/>
<path class="st0" d="M2008.5,414.4c-10.7,9.2-1464.6,95.7-1506.6,89.5c-19.1-3-47.4-14.5-63.5-25.3
	c-66.6-45.1-231.8-180.6-231.8-190.5c0-26-5.4-26,642.8-72.7c124-8.4,327.5-23.7,451.5-33.7c268.5-21.4,348.9-20.7,398.6,1.5
	c32.1,14.5,267.1,178.3,301.5,209.7C2010,402.2,2013.1,409.8,2008.5,414.4z"/>
<path class="st0" d="M2184.5,653.1c-3.1-19.9-12.2-40.5-22.9-51.2c-22.9-22.9-21.4-22.9-481.9,5.4c-193.6,11.5-531,32.1-749.1,44.4
	c-310.6,18.3-400.9,26-414.7,35.2c-10,6.1-21.4,24.5-26,39.8c-6.2,20.7-7.7,250.2-6.2,769l2.3,739.2l18.4,19.9
	c10.7,10.7,30.6,22.9,45.1,26.8c31.4,9.2,1554.8-77.3,1586.9-90.3c11.5-3.8,26.8-16.8,34.5-29.1c13-19.9,13.8-62.8,16.1-748.3
	C2188.3,1014.3,2186.8,671.5,2184.5,653.1z M2029.2,1665.9c-10.5,29.3-31.7,41.4-61.7,41.3c-18.6,0-37.3,2-56.8,3.1v16.4
	c0,91.4,0,182.7,0,274.1c0,38.5-20.8,60.5-59.7,62.9c-342,20.8-685.3,41.6-1030,62.5c-38.6,2.3-59.9-17.5-59.9-55.2
	c0-92.4,0-184.8,0-277.2v-16c-21.3,1.2-40.4,2.4-59.4,3.5c-43,2.5-60.7-13.6-60.7-55.5c0-101.4,0-202.8,0-304.2
	c0-41.8,17.8-60.1,60.8-62.7c19.4-1.1,38.8-2.2,59.4-3.4v-16.2c0-63.4,0-126.8,0-190.1c0-39.8,20.8-61.5,61-63.7
	c149.8-8.2,299.4-16.4,448.7-24.6c5.3-0.3,10.6-0.6,17.2-0.9V760.7c33.6-1.8,65.8-3.5,99.4-5.3v299.2c6.7-0.4,12-0.7,17.3-1
	c148.4-8.1,296.5-16.3,444.4-24.4c41.1-2.2,61.4,16.6,61.4,56.7c0,63,0,126,0,188.9v15.9c20-1.1,38.7-1.5,57.4-3.4
	c30-3.1,51.3,6.7,61.1,35.3V1665.9z"/>
<g>
	<path d="M1968.2,1287.5c-18.7,1.9-37.4,2.3-57.4,3.4v-15.9c0-63,0-126,0-188.9c0-40.2-20.4-59-61.4-56.7
		c-147.9,8.1-296.1,16.3-444.4,24.4c-5.3,0.3-10.6,0.6-17.3,1V755.4c-33.6,1.8-65.8,3.5-99.4,5.3v299.4c-6.7,0.4-12,0.7-17.2,0.9
		c-149.3,8.2-298.9,16.4-448.7,24.6c-40.2,2.2-61,23.9-61,63.7c0,63.4,0,126.8,0,190.1v16.2c-20.6,1.2-40,2.2-59.4,3.4
		c-42.9,2.5-60.8,20.9-60.8,62.7c0,101.4,0,202.8,0,304.2c0,41.9,17.7,58,60.7,55.5c19.1-1.1,38.1-2.2,59.4-3.5v16
		c0,92.4,0,184.8,0,277.2c0,37.7,21.3,57.5,59.9,55.2c344.6-20.9,688-41.7,1030-62.5c38.9-2.4,59.7-24.4,59.7-62.9
		c0-91.4,0-182.7,0-274.1v-16.4c19.4-1.1,38.2-3.2,56.8-3.1c30,0.1,51.2-12,61.7-41.3v-343.1
		C2019.5,1294.2,1998.2,1284.3,1968.2,1287.5z M968,1458.8c0.7-78.6,65.7-145,145.7-148.8c79.6-3.8,143.3,56.5,142.8,135.1
		c-0.5,78.3-66.6,145.3-147,149C1031.2,1597.7,967.3,1536.7,968,1458.8z M1555.5,1850.6c-144.9,8.6-289.9,17.2-436,25.9v-95.5
		c145.7-8.6,290.5-17.1,436-25.7V1850.6z M1561.8,1567.9c-79.8,4.3-146.2-57.2-145.8-135c0.4-78.7,66.6-147.3,145.9-151.5
		c79-4.2,144.6,57.8,144.3,136.3C1705.9,1497,1641.8,1563.7,1561.8,1567.9z"/>
	<path class="st0" d="M1555.5,1755.3v95.3c-144.9,8.6-289.9,17.2-436,25.9v-95.5C1265.2,1772.4,1409.9,1763.8,1555.5,1755.3z"/>
	<path class="st0" d="M1256.5,1445.1c-0.5,78.3-66.6,145.3-147,149c-78.4,3.6-142.2-57.4-141.5-135.2c0.7-78.6,65.7-145,145.7-148.8
		C1193.3,1306.2,1257,1366.6,1256.5,1445.1z"/>
	<path class="st0" d="M1706.2,1417.7c-0.3,79.2-64.4,145.9-144.4,150.2c-79.8,4.3-146.2-57.2-145.8-135
		c0.4-78.7,66.6-147.3,145.9-151.5C1641,1277.3,1706.5,1339.2,1706.2,1417.7z"/>
</g>
</svg>
