<svg xmlns="http://www.w3.org/2000/svg" viewBox="0 0 2348.04 2443.73">
  <defs>
    <style>
      .cls-1 {
        fill: #fff;
      }
    </style>
  </defs>
  <g id="Layer_2" data-name="Layer 2">
    <g id="botion-logo">
      <g id="botion-logo-2" data-name="botion-logo">
        <path d="M2336,456.14c-14.51-28.31-40.55-48.2-380.29-286.95C1728.46,10,1712.39,1.62,1610.58.07c-42-1.5-389.43,21.44-771.22,50.52C456.79,78.9,131.57,104.93,116.28,108c-42.87,7.65-81.88,36.73-100.21,75L0,216.66l1.55,802.68L3.82,1822l24.49,49.74c13.79,27.54,107.13,156.11,208.89,288.45C438.45,2421.12,453,2435.69,529.47,2443.33c22.21,2.28,189-5.37,369.6-16.06,181.36-11.47,472.08-29.08,646.57-39,745.24-45.25,707-41.42,749.79-78.15,53.57-44.37,49.75,28.31,52-947.27C2349,535.69,2348.23,481.4,2336,456.14ZM206.57,260.26c0-26-5.37-26,642.76-72.68,124-8.42,327.49-23.71,451.47-33.68,268.51-21.44,348.88-20.66,398.58,1.5,32.13,14.52,267.06,178.27,301.46,209.67,9.19,9.19,12.24,16.84,7.65,21.44-10.7,9.19-1464.55,95.66-1506.6,89.52-19.11-3-47.42-14.52-63.48-25.26C371.82,405.62,206.57,270.18,206.57,260.26ZM2186.75,1385.79c-2.27,685.58-3.05,728.45-16.06,748.34-7.65,12.24-22.94,25.26-34.46,29.08-32.08,13-1555.51,99.49-1586.87,90.29-14.52-3.82-34.45-16.06-45.15-26.76l-18.38-19.88-2.28-739.15c-1.55-518.78,0-748.33,6.15-769,4.59-15.29,16.06-33.68,26-39.77,13.79-9.2,104.09-16.84,414.74-35.18,218.09-12.24,555.51-32.91,749.12-44.37,460.51-28.36,459-28.36,482-5.42,10.69,10.69,19.89,31.35,22.94,51.24C2186.75,643.6,2188.3,986.39,2186.75,1385.79Z"/>
        <path class="cls-1" d="M2008.49,386.51c-10.7,9.19-1464.55,95.66-1506.6,89.52-19.11-3-47.42-14.52-63.48-25.26-66.59-45.15-231.84-180.59-231.84-190.51,0-26-5.37-26,642.76-72.68,124-8.42,327.49-23.71,451.47-33.68,268.51-21.44,348.88-20.66,398.58,1.5,32.13,14.52,267.06,178.27,301.46,209.67C2010,374.26,2013.08,381.91,2008.49,386.51Z"/>
        <path class="cls-1" d="M2184.48,625.21c-3.05-19.89-12.25-40.55-22.94-51.24C2138.6,551,2140.1,551,1679.59,579.39c-193.61,11.46-531,32.13-749.12,44.37-310.65,18.34-401,26-414.74,35.18-10,6.09-21.44,24.48-26,39.77-6.15,20.67-7.7,250.22-6.15,769l2.28,739.15,18.38,19.88c10.7,10.7,30.63,22.94,45.15,26.76,31.36,9.2,1554.79-77.27,1586.87-90.29,11.52-3.82,26.81-16.84,34.46-29.08,13-19.89,13.79-62.76,16.06-748.34C2188.3,986.39,2186.75,643.6,2184.48,625.21ZM2029.25,1638c-10.49,29.3-31.69,41.39-61.7,41.32-18.59,0-37.31,2-56.76,3.12v16.39q0,137,0,274.1c0,38.51-20.78,60.54-59.68,62.91q-513,31.18-1030,62.47c-38.56,2.34-59.86-17.46-59.87-55.2q0-138.6,0-277.19v-16c-21.29,1.25-40.35,2.38-59.42,3.49-43,2.49-60.7-13.63-60.71-55.49q0-152.09,0-304.16c0-41.76,17.83-60.12,60.76-62.66,19.39-1.14,38.77-2.19,59.37-3.36v-16.19q0-95.07,0-190.14c0-39.79,20.75-61.46,61-63.68l448.67-24.65,17.25-.94V732.78l99.43-5.3v299.25l17.31-1,444.45-24.41c41.05-2.25,61.43,16.57,61.44,56.73q0,94.47,0,188.94V1263c20-1.13,38.73-1.46,57.39-3.4,30-3.13,51.28,6.67,61.07,35.31Z"/>
        <g>
          <path d="M1968.18,1259.57c-18.66,1.94-37.39,2.27-57.39,3.4V1247q0-94.47,0-188.94c0-40.16-20.39-59-61.44-56.73l-444.45,24.41-17.31,1V727.48l-99.43,5.3V1032.2l-17.25.94-448.67,24.65c-40.23,2.22-61,23.89-61,63.68q0,95.07,0,190.14v16.19c-20.6,1.17-40,2.22-59.37,3.36-42.93,2.54-60.75,20.9-60.76,62.66q0,152.09,0,304.16c0,41.86,17.67,58,60.71,55.49,19.07-1.11,38.13-2.24,59.42-3.49v16q0,138.6,0,277.19c0,37.74,21.31,57.54,59.87,55.2q516.93-31.28,1030-62.47c38.9-2.37,59.67-24.4,59.68-62.91q0-137.06,0-274.1v-16.39c19.45-1.14,38.17-3.16,56.76-3.12,30,.07,51.21-12,61.7-41.32V1294.88C2019.46,1266.24,1998.21,1256.44,1968.18,1259.57ZM968,1430.9c.68-78.57,65.74-145,145.67-148.79,79.6-3.77,143.33,56.54,142.81,135.08-.52,78.26-66.62,145.28-147,149C1031.19,1569.74,967.35,1508.76,968,1430.9Zm587.46,391.74-436,25.89V1753l436-25.67ZM1561.8,1540c-79.8,4.27-146.2-57.18-145.78-135,.43-78.67,66.56-147.31,145.92-151.5,79-4.17,144.59,57.78,144.27,136.29C1705.88,1469.05,1641.78,1535.75,1561.8,1540Z"/>
          <path class="cls-1" d="M1555.49,1727.36v95.28l-436,25.89V1753Z"/>
          <path class="cls-1" d="M1256.51,1417.19c-.52,78.26-66.62,145.28-147,149-78.36,3.59-142.2-57.39-141.52-135.25.68-78.57,65.74-145,145.67-148.79C1193.3,1278.34,1257,1338.65,1256.51,1417.19Z"/>
          <path class="cls-1" d="M1706.21,1389.83c-.33,79.22-64.43,145.92-144.41,150.19-79.8,4.27-146.2-57.18-145.78-135,.43-78.67,66.56-147.31,145.92-151.5C1641,1249.37,1706.53,1311.32,1706.21,1389.83Z"/>
        </g>
      </g>
    </g>
  </g>
</svg>
